<svg fill="#4CBA86" xmlns="http://www.w3.org/2000/svg" xmlns:xlink="http://www.w3.org/1999/xlink" version="1.1" x="0px" y="0px" viewBox="0 0 64 64" enable-background="new 0 0 64 64" xml:space="preserve"><g><g><g><path d="M35,60.5H1c-0.553,0-1-0.447-1-1v-55c0-0.553,0.447-1,1-1h34c0.553,0,1,0.447,1,1v55C36,60.053,35.553,60.5,35,60.5z      M2,58.5h32v-53H2V58.5z"></path></g><g><path d="M18,60.5c-0.553,0-1-0.447-1-1v-55c0-0.553,0.447-1,1-1s1,0.447,1,1v55C19,60.053,18.553,60.5,18,60.5z"></path></g><g><path d="M12,35.5c-0.553,0-1-0.447-1-1v-4c0-0.553,0.447-1,1-1s1,0.447,1,1v4C13,35.053,12.553,35.5,12,35.5z"></path></g><g><g><path d="M63,60.5c-0.553,0-1-0.447-1-1v-35c0-0.553,0.447-1,1-1s1,0.447,1,1v35C64,60.053,63.553,60.5,63,60.5z"></path></g><g><path d="M60,60.5c-0.553,0-1-0.447-1-1v-35c0-0.553,0.447-1,1-1s1,0.447,1,1v35C61,60.053,60.553,60.5,60,60.5z"></path></g><g><path d="M63,25.5h-3c-0.553,0-1-0.447-1-1s0.447-1,1-1h3c0.553,0,1,0.447,1,1S63.553,25.5,63,25.5z"></path></g><g><path d="M63,60.5h-3c-0.553,0-1-0.447-1-1s0.447-1,1-1h3c0.553,0,1,0.447,1,1S63.553,60.5,63,60.5z"></path></g><g><path d="M49,60.5c-0.553,0-1-0.447-1-1v-13c0-0.553,0.447-1,1-1s1,0.447,1,1v13C50,60.053,49.553,60.5,49,60.5z"></path></g><g><path d="M46,60.5c-0.553,0-1-0.447-1-1v-13c0-0.553,0.447-1,1-1s1,0.447,1,1v13C47,60.053,46.553,60.5,46,60.5z"></path></g><g><path d="M49,60.5h-3c-0.553,0-1-0.447-1-1s0.447-1,1-1h3c0.553,0,1,0.447,1,1S49.553,60.5,49,60.5z"></path></g><g><path d="M60,47.5H45c-0.553,0-1-0.447-1-1s0.447-1,1-1h15c0.553,0,1,0.447,1,1S60.553,47.5,60,47.5z"></path></g><g><path d="M60,44.5H45c-0.553,0-1-0.447-1-1s0.447-1,1-1h15c0.553,0,1,0.447,1,1S60.553,44.5,60,44.5z"></path></g><g><path d="M45,47.5c-0.553,0-1-0.447-1-1v-3c0-0.553,0.447-1,1-1s1,0.447,1,1v3C46,47.053,45.553,47.5,45,47.5z"></path></g></g><g><g><path d="M39,60.5c-0.553,0-1-0.447-1-1v-35c0-0.553,0.447-1,1-1s1,0.447,1,1v35C40,60.053,39.553,60.5,39,60.5z"></path></g><g><path d="M42,60.5c-0.553,0-1-0.447-1-1v-35c0-0.553,0.447-1,1-1s1,0.447,1,1v35C43,60.053,42.553,60.5,42,60.5z"></path></g><g><path d="M42,60.5h-3c-0.553,0-1-0.447-1-1s0.447-1,1-1h3c0.553,0,1,0.447,1,1S42.553,60.5,42,60.5z"></path></g><g><path d="M42,25.5h-3c-0.553,0-1-0.447-1-1s0.447-1,1-1h3c0.553,0,1,0.447,1,1S42.553,25.5,42,25.5z"></path></g><g><path d="M53,38.5c-0.553,0-1-0.447-1-1v-13c0-0.553,0.447-1,1-1s1,0.447,1,1v13C54,38.053,53.553,38.5,53,38.5z"></path></g><g><path d="M56,38.5c-0.553,0-1-0.447-1-1v-13c0-0.553,0.447-1,1-1s1,0.447,1,1v13C57,38.053,56.553,38.5,56,38.5z"></path></g><g><path d="M56,25.5h-3c-0.553,0-1-0.447-1-1s0.447-1,1-1h3c0.553,0,1,0.447,1,1S56.553,25.5,56,25.5z"></path></g><g><path d="M57,38.5H42c-0.553,0-1-0.447-1-1s0.447-1,1-1h15c0.553,0,1,0.447,1,1S57.553,38.5,57,38.5z"></path></g><g><path d="M57,41.5H42c-0.553,0-1-0.447-1-1s0.447-1,1-1h15c0.553,0,1,0.447,1,1S57.553,41.5,57,41.5z"></path></g><g><path d="M57,41.5c-0.553,0-1-0.447-1-1v-3c0-0.553,0.447-1,1-1s1,0.447,1,1v3C58,41.053,57.553,41.5,57,41.5z"></path></g></g><g><path d="M35,16.5H18c-0.553,0-1-0.447-1-1s0.447-1,1-1h17c0.553,0,1,0.447,1,1S35.553,16.5,35,16.5z"></path></g><g><path d="M35,27.5H18c-0.553,0-1-0.447-1-1s0.447-1,1-1h17c0.553,0,1,0.447,1,1S35.553,27.5,35,27.5z"></path></g><g><path d="M35,38.5H18c-0.553,0-1-0.447-1-1s0.447-1,1-1h17c0.553,0,1,0.447,1,1S35.553,38.5,35,38.5z"></path></g><g><path d="M35,49.5H18c-0.553,0-1-0.447-1-1s0.447-1,1-1h17c0.553,0,1,0.447,1,1S35.553,49.5,35,49.5z"></path></g><g><path d="M63,22.5H39c-0.553,0-1-0.447-1-1v-17c0-0.553,0.447-1,1-1h24c0.553,0,1,0.447,1,1v17C64,22.053,63.553,22.5,63,22.5z      M40,20.5h22v-15H40V20.5z"></path></g><g><path d="M48.999,22.5c-0.19,0-0.383-0.055-0.554-0.168c-0.46-0.307-0.584-0.927-0.277-1.387l6-9     c0.306-0.46,0.925-0.583,1.387-0.277c0.46,0.307,0.584,0.927,0.277,1.387l-6,9C49.64,22.344,49.322,22.5,48.999,22.5z"></path></g><g><path d="M61.001,22.5c-0.323,0-0.641-0.156-0.833-0.445l-6-9c-0.307-0.46-0.183-1.08,0.277-1.387     c0.461-0.306,1.081-0.183,1.387,0.277l6,9c0.307,0.46,0.183,1.08-0.277,1.387C61.384,22.445,61.191,22.5,61.001,22.5z"></path></g><g><path d="M43.999,22.5c-0.19,0-0.383-0.055-0.554-0.168c-0.46-0.307-0.584-0.927-0.277-1.387l4-6     c0.306-0.46,0.925-0.584,1.387-0.277c0.46,0.307,0.584,0.927,0.277,1.387l-4,6C44.64,22.344,44.322,22.5,43.999,22.5z"></path></g><g><path d="M50.501,20.25c-0.323,0-0.641-0.156-0.833-0.445l-2.5-3.75c-0.307-0.46-0.183-1.08,0.277-1.387s1.08-0.183,1.387,0.277     l2.5,3.75c0.307,0.46,0.183,1.08-0.277,1.387C50.884,20.195,50.691,20.25,50.501,20.25z"></path></g><g><path d="M44.5,12.5c-1.379,0-2.5-1.121-2.5-2.5s1.121-2.5,2.5-2.5S47,8.621,47,10S45.879,12.5,44.5,12.5z M44.5,9.5     C44.225,9.5,44,9.725,44,10s0.225,0.5,0.5,0.5S45,10.275,45,10S44.775,9.5,44.5,9.5z"></path></g></g></g></svg>